<?xml version="1.0" encoding="UTF-8" standalone="no"?>
<!DOCTYPE svg PUBLIC "-//W3C//DTD SVG 1.1//EN" "http://www.w3.org/Graphics/SVG/1.1/DTD/svg11.dtd">
<svg width="100%" height="100%" viewBox="0 0 20 20" version="1.1" xmlns="http://www.w3.org/2000/svg" xmlns:xlink="http://www.w3.org/1999/xlink" xml:space="preserve" xmlns:serif="http://www.serif.com/" style="fill-rule:evenodd;clip-rule:evenodd;stroke-linejoin:round;stroke-miterlimit:2;">
    <g transform="matrix(1,0,0,1,0,-0.213334)">
        <g id="Artboard1" transform="matrix(1,0,0,1,0,0.213334)">
            <rect x="0" y="0" width="20" height="20" style="fill:none;"/>
            <clipPath id="_clip1">
                <rect x="0" y="0" width="20" height="20"/>
            </clipPath>
            <g clip-path="url(#_clip1)">
                <g id="adobe-illustrator.svg" transform="matrix(0.0153708,0,0,0.0153708,10.0923,9.98123)">
                    <g transform="matrix(1,0,0,1,-666.67,-650.005)">
                        <g>
                            <rect x="55.55" y="55.55" width="1222.23" height="1188.9" style="fill:rgb(28,10,0);fill-rule:nonzero;"/>
                            <path d="M55.55,55.55L1277.78,55.55L1277.78,1244.45L55.55,1244.45L55.55,55.55ZM0,1300.01L1333.34,1300.01L1333.34,0L0,0L0,1300.01ZM873.33,463.33C873.33,458.89 875,456.66 880,456.66L967.22,456.66C971.66,456.66 973.89,458.33 973.89,463.33L973.89,901.67C973.89,906.11 972.78,908.34 967.22,908.34L881.11,908.34C875.55,908.34 873.89,905.56 873.89,901.12L873.89,463.34L873.33,463.34L873.33,463.33ZM867.22,337.22C867.22,301.66 892.22,280.55 923.89,280.55C957.78,280.55 980.56,303.33 980.56,337.22C980.56,373.89 956.67,393.89 922.78,393.89C890.56,393.89 867.22,373.89 867.22,337.22ZM617.22,646.11C601.67,584.44 565,450 551.11,385L550,385C538.33,450 508.89,560 485.55,646.11L617.22,646.11ZM462.77,736.11L418.88,902.78C417.77,907.22 416.1,908.33 410.55,908.33L328.88,908.33C323.32,908.33 322.21,906.66 323.32,900L481.1,347.77C483.88,337.77 485.54,328.88 486.66,301.66C486.66,297.77 488.33,296.1 491.1,296.1L607.77,296.1C611.66,296.1 613.33,297.21 614.44,301.66L791.11,901.11C792.22,905.55 791.11,908.33 786.67,908.33L694.45,908.33C690.01,908.33 687.23,907.22 686.12,903.33L640.56,736.11L462.77,736.11Z" style="fill:rgb(255,127,24);fill-rule:nonzero;"/>
                        </g>
                    </g>
                </g>
            </g>
        </g>
    </g>
</svg>
