<?xml version="1.0" encoding="UTF-8" standalone="no"?>
<!DOCTYPE svg PUBLIC "-//W3C//DTD SVG 1.1//EN" "http://www.w3.org/Graphics/SVG/1.1/DTD/svg11.dtd">
<svg width="100%" height="100%" viewBox="0 0 20 20" version="1.1" xmlns="http://www.w3.org/2000/svg" xmlns:xlink="http://www.w3.org/1999/xlink" xml:space="preserve" xmlns:serif="http://www.serif.com/" style="fill-rule:evenodd;clip-rule:evenodd;stroke-linejoin:round;stroke-miterlimit:2;">
    <g transform="matrix(1,0,0,1,-49.0598,0)">
        <g id="Artboard2" transform="matrix(1,0,0,1,-46.0022,0)">
            <rect x="95.062" y="0" width="20" height="20" style="fill:none;"/>
            <clipPath id="_clip1">
                <rect x="95.062" y="0" width="20" height="20"/>
            </clipPath>
            <g clip-path="url(#_clip1)">
                <g id="figma.svg" transform="matrix(0.00997404,0,0,0.00997404,105.842,10.0297)">
                    <g transform="matrix(1,0,0,1,-667,-1000)">
                        <g transform="matrix(16.2756,0,0,16.2756,0,0)">
                            <path d="M20.48,122.88C31.78,122.88 40.96,113.71 40.96,102.4L40.96,81.92L20.48,81.92C9.18,81.92 0,91.09 0,102.4C0,113.71 9.18,122.88 20.48,122.88Z" style="fill:rgb(10,207,131);fill-rule:nonzero;"/>
                            <path d="M0,61.44C0,50.14 9.18,40.96 20.48,40.96L40.96,40.96L40.96,81.92L20.48,81.92C9.18,81.92 0,72.75 0,61.44Z" style="fill:rgb(162,89,255);fill-rule:nonzero;"/>
                            <path d="M0,20.48C0,9.18 9.18,0 20.48,0L40.96,0L40.96,40.96L20.48,40.96C9.18,40.96 0,31.79 0,20.48Z" style="fill:rgb(242,78,30);fill-rule:nonzero;"/>
                            <path d="M40.96,0L61.44,0C72.74,0 81.92,9.18 81.92,20.48C81.92,31.79 72.75,40.96 61.44,40.96L40.96,40.96L40.96,0Z" style="fill:rgb(255,114,98);fill-rule:nonzero;"/>
                            <path d="M81.92,61.44C81.92,72.75 72.75,81.92 61.44,81.92C50.13,81.92 40.96,72.75 40.96,61.44C40.96,50.14 50.13,40.96 61.44,40.96C72.75,40.96 81.92,50.14 81.92,61.44Z" style="fill:rgb(26,188,254);fill-rule:nonzero;"/>
                        </g>
                    </g>
                </g>
            </g>
        </g>
    </g>
</svg>
