<?xml version="1.0" encoding="UTF-8" standalone="no"?>
<!DOCTYPE svg PUBLIC "-//W3C//DTD SVG 1.1//EN" "http://www.w3.org/Graphics/SVG/1.1/DTD/svg11.dtd">
<svg width="100%" height="100%" viewBox="0 0 20 20" version="1.1" xmlns="http://www.w3.org/2000/svg" xmlns:xlink="http://www.w3.org/1999/xlink" xml:space="preserve" xmlns:serif="http://www.serif.com/" style="fill-rule:evenodd;clip-rule:evenodd;stroke-linejoin:round;stroke-miterlimit:2;">
    <g transform="matrix(1,0,0,1,0,-29.4059)">
        <g id="Artboard5" transform="matrix(1,0,0,1,-168.303,29.4059)">
            <rect x="168.303" y="0" width="20" height="20" style="fill:none;"/>
            <clipPath id="_clip1">
                <rect x="168.303" y="0" width="20" height="20"/>
            </clipPath>
            <g clip-path="url(#_clip1)">
                <g id="javascript.svg" transform="matrix(0.163997,0,0,0.163997,178.278,9.93888)">
                    <g transform="matrix(1,0,0,1,-61.44,-61.44)">
                        <g>
                            <rect x="0" y="0" width="122.88" height="122.88" style="fill:rgb(247,223,30);"/>
                            <path d="M32.31,102.69L41.71,97C43.52,100.22 45.17,102.94 49.13,102.94C52.92,102.94 55.32,101.46 55.32,95.68L55.32,56.41L66.87,56.41L66.87,95.84C66.87,107.8 59.86,113.24 49.63,113.24C40.39,113.24 35.03,108.46 32.31,102.69ZM73.14,101.45L82.54,96.01C85.02,100.05 88.23,103.02 93.92,103.02C98.7,103.02 101.76,100.63 101.76,97.33C101.76,93.37 98.63,91.97 93.35,89.66L90.46,88.42C82.13,84.87 76.6,80.42 76.6,71.02C76.6,62.36 83.2,55.76 93.51,55.76C100.85,55.76 106.13,58.32 109.92,65L100.93,70.77C98.95,67.22 96.81,65.82 93.51,65.82C90.13,65.82 87.98,67.96 87.98,70.77C87.98,74.23 90.12,75.64 95.07,77.78L97.96,79.02C107.78,83.23 113.3,87.52 113.3,97.17C113.3,107.56 105.13,113.25 94.16,113.25C83.45,113.25 76.52,108.13 73.14,101.45Z"/>
                        </g>
                    </g>
                </g>
            </g>
        </g>
    </g>
</svg>
