<?xml version="1.0" encoding="UTF-8" standalone="no"?>
<!DOCTYPE svg PUBLIC "-//W3C//DTD SVG 1.1//EN" "http://www.w3.org/Graphics/SVG/1.1/DTD/svg11.dtd">
<svg width="100%" height="100%" viewBox="0 0 35 20" version="1.1" xmlns="http://www.w3.org/2000/svg" xmlns:xlink="http://www.w3.org/1999/xlink" xml:space="preserve" xmlns:serif="http://www.serif.com/" style="fill-rule:evenodd;clip-rule:evenodd;stroke-linejoin:round;stroke-miterlimit:2;">
    <g transform="matrix(1,0,0,1,-25.5214,-29.8817)">
        <g id="Artboard6" transform="matrix(1.74595,0,0,1,-269.531,29.8817)">
            <rect x="168.992" y="0" width="20" height="20" style="fill:none;"/>
            <g id="php.svg" transform="matrix(0.162553,0,0,0.283809,178.997,8.97661)">
                <g transform="matrix(1,0,0,1,-61.44,-31.135)">
                    <g>
                        <path d="M61.44,62.27C95.37,62.27 122.88,48.33 122.88,31.13C122.88,13.94 95.37,0 61.44,0C27.51,0 0,13.94 0,31.14C0,48.33 27.51,62.27 61.44,62.27ZM93.88,24.99C93.41,24.47 92.17,24.21 90.15,24.21L87.1,24.21L85.31,33.4L87.06,33.4C88.29,33.4 89.33,33.29 90.2,33.07C90.96,32.88 91.57,32.61 92.03,32.26C92.48,31.92 92.86,31.44 93.18,30.82C93.54,30.13 93.83,29.27 94.03,28.24C94.22,27.28 94.27,26.49 94.19,25.86C94.14,25.45 94.04,25.16 93.88,24.99ZM54.56,6.86L61.37,6.86C62.47,6.86 63.37,7.76 63.37,8.86C63.37,9.03 63.35,9.2 63.31,9.36L62.17,15.23L65.81,15.23C67.88,15.23 69.65,15.42 71.13,15.79C72.77,16.21 74.08,16.86 75.06,17.76C75.91,18.54 76.51,19.5 76.87,20.64L77.58,16.97C77.71,15.99 78.55,15.23 79.56,15.23L92.76,15.23C94.96,15.23 96.9,15.53 98.58,16.14C100.35,16.78 101.81,17.75 102.95,19.05C104.1,20.37 104.85,21.93 105.19,23.74C105.51,25.45 105.47,27.35 105.06,29.46C104.89,30.31 104.66,31.15 104.37,31.97C104.08,32.78 103.73,33.55 103.32,34.28C102.9,35.02 102.43,35.73 101.91,36.38C101.38,37.04 100.79,37.68 100.14,38.27C99.35,39.01 98.52,39.64 97.65,40.16C96.75,40.7 95.82,41.12 94.85,41.44C93.91,41.75 92.83,41.98 91.63,42.13C90.44,42.28 89.17,42.36 87.83,42.36L83.6,42.36L82.28,49C82.15,49.98 81.31,50.74 80.3,50.74L73.44,50.74C73.32,50.74 73.19,50.73 73.06,50.7C71.98,50.49 71.27,49.45 71.47,48.36L72.65,42.29C72.49,42.33 72.32,42.35 72.15,42.35L65.23,42.35C64.13,42.35 63.23,41.45 63.23,40.35C63.23,40.18 63.25,40.01 63.29,39.85L65.97,26.04C66.09,25.43 66.13,24.96 66.09,24.62C66.08,24.52 66.16,24.57 66.13,24.53L65.85,24.46C65.45,24.36 64.89,24.31 64.17,24.31L60.37,24.31L57.2,40.74C57.02,41.7 56.18,42.36 55.24,42.36L48.43,42.36C47.33,42.36 46.43,41.46 46.43,40.36C46.43,40.19 46.45,40.02 46.49,39.86L46.85,37.99L46.55,38.27C45.76,39.01 44.93,39.64 44.06,40.16C43.16,40.7 42.23,41.12 41.26,41.44C40.32,41.75 39.24,41.98 38.04,42.13C36.85,42.28 35.58,42.36 34.24,42.36L30,42.36L28.71,49C28.58,49.98 27.74,50.74 26.73,50.74L19.87,50.74C19.75,50.74 19.62,50.73 19.49,50.7C18.41,50.49 17.7,49.45 17.9,48.36L24,16.97C24.13,15.99 24.97,15.23 25.98,15.23L39.18,15.23C41.38,15.23 43.32,15.53 45,16.14C46.78,16.78 48.23,17.75 49.37,19.05C49.71,19.44 50.02,19.86 50.3,20.3L52.6,8.49C52.78,7.53 53.62,6.86 54.56,6.86ZM40.32,24.99C39.85,24.47 38.61,24.21 36.59,24.21L33.53,24.21L31.74,33.4L33.49,33.4C34.72,33.4 35.76,33.29 36.63,33.07C37.39,32.88 38,32.61 38.46,32.26C38.91,31.92 39.29,31.44 39.61,30.82C39.97,30.13 40.26,29.27 40.46,28.24C40.65,27.28 40.7,26.49 40.62,25.86C40.57,25.45 40.47,25.16 40.32,24.99Z" style="fill:rgb(104,132,186);"/>
                        <path d="M90.15,22.21C92.76,22.21 94.5,22.69 95.36,23.65C96.23,24.61 96.43,26.26 95.98,28.61C95.51,31.05 94.59,32.79 93.24,33.83C91.89,34.87 89.82,35.39 87.06,35.39L82.89,35.39L85.45,22.2L90.15,22.2L90.15,22.21ZM54.56,8.86L61.37,8.86L59.74,17.24L65.81,17.24C69.63,17.24 72.26,17.91 73.71,19.24C75.16,20.57 75.59,22.73 75.01,25.71L72.16,40.37L65.24,40.37L67.95,26.43C68.26,24.84 68.14,23.76 67.61,23.19C67.07,22.61 65.94,22.32 64.19,22.32L58.75,22.32L55.24,40.37L48.43,40.37L54.56,8.86ZM36.59,22.21C39.2,22.21 40.94,22.69 41.8,23.65C42.67,24.61 42.88,26.26 42.42,28.61C41.95,31.05 41.03,32.79 39.68,33.83C38.33,34.87 36.26,35.39 33.5,35.39L29.33,35.39L31.89,22.2L36.59,22.2L36.59,22.21ZM19.87,48.74L26.73,48.74L28.36,40.36L34.24,40.36C36.83,40.36 38.97,40.09 40.64,39.54C42.32,39 43.84,38.08 45.21,36.8C46.36,35.74 47.29,34.58 48,33.3C48.71,32.03 49.22,30.62 49.52,29.08C50.25,25.35 49.7,22.44 47.88,20.35C46.06,18.27 43.16,17.22 39.19,17.22L25.99,17.22L19.87,48.74ZM73.43,48.74L80.29,48.74L81.92,40.36L87.8,40.36C90.39,40.36 92.53,40.09 94.2,39.54C95.88,39 97.4,38.08 98.77,36.8C99.92,35.74 100.85,34.58 101.56,33.3C102.27,32.03 102.78,30.62 103.08,29.08C103.81,25.35 103.26,22.44 101.44,20.35C99.62,18.27 96.72,17.22 92.75,17.22L79.55,17.22L73.43,48.74Z"/>
                    </g>
                </g>
            </g>
        </g>
    </g>
</svg>
